<!DOCTYPE svg PUBLIC "-//W3C//DTD SVG 1.1//EN" "http://www.w3.org/Graphics/SVG/1.1/DTD/svg11.dtd"><!-- Creator: CorelDRAW 2021 (64Bit) --><svg xmlns="http://www.w3.org/2000/svg" xml:space="preserve" width="auto" height="auto" version="1.1" style="shape-rendering:geometricPrecision; text-rendering:geometricPrecision; image-rendering:optimizeQuality; fill-rule:evenodd; clip-rule:evenodd" viewBox="0 0 1721.2 1596.68" xmlns:xlink="http://www.w3.org/1999/xlink" xmlns:xodm="http://www.corel.com/coreldraw/odm/2003">
 <defs>
  <style type="text/css">
   
    .fil0 {fill:#FEFEFE}
   
  </style>
 </defs>
 <g id="Layer_x0020_1">
  <metadata id="CorelCorpID_0Corel-Layer"></metadata>
  <g id="_2072292019648">
   <path class="fil0" d="M615.86 649.16l-8.56 7.1 21.13 -9.12c153.68,-66.45 384.1,-166.07 567.43,-44.76 38.02,25.17 70.94,56.51 94.93,94.59 22,34.91 36.34,75.15 40.09,121.06 3.06,37.46 0.3,74.8 -10.95,112.49 -11.16,37.41 -30.64,74.79 -61.02,112.49 -1.98,2.51 -3.99,4.95 -6.02,7.31 -14.78,6.07 -28.48,13.23 -41.1,21.5 -12.79,8.39 -24.68,18.01 -35.64,28.85 -10.87,10.78 -20.61,22.57 -29.2,35.37 -6.01,8.97 -11.46,18.44 -16.34,28.41 -12.77,9.27 -25.83,18.13 -38.97,26.46 -0.55,-5.3 -1.33,-10.53 -2.35,-15.7 -2.18,-11.08 -5.49,-21.9 -9.94,-32.44 -4.4,-10.46 -9.59,-20.19 -15.59,-29.17 -6.04,-9.09 -12.94,-17.5 -20.65,-25.2l-0.04 -0.05c-7.69,-7.67 -16.1,-14.57 -25.23,-20.68 -9.12,-6.1 -18.93,-11.4 -29.41,-15.88 -2.87,-1.22 -5.78,-2.37 -8.72,-3.43 9.42,-6.2 18.52,-12.45 27.25,-18.77l8.48 -5.81 -0.03 -0.05c4.22,-2.87 7.95,-5.41 13.56,-10.17 5.05,-4.29 12.33,-10.11 19.51,-15.85l0 -0.11c8,-6.39 15.86,-12.67 23.46,-19.42 21.74,-19.27 43.7,-42.42 60.6,-68.15 13.05,-19.89 22.9,-41.06 26.8,-62.64 6.38,-35.39 -2.4,-65.54 -19.02,-89.88 -22.12,-32.39 -58,-55.27 -91.71,-67.31 -37.51,-13.39 -87.12,-9.14 -138.57,3.67 -78.26,19.48 -159.41,58.56 -212.52,87.6 -10.09,5.52 -21.92,12.23 -33.76,18.94 -24.03,13.64 -48.15,27.32 -73.51,39.68 -21.8,10.62 -50.28,20.39 -79.58,24.65 -24.78,3.6 -50.4,3.26 -73.74,-3.68 -5.39,-1.6 -10.87,-3.57 -16.41,-5.86 -35.09,-14.51 -58.73,-38.62 -71.14,-68.07 -12.17,-28.9 -13.12,-62.23 -3.08,-95.95 1.69,-5.69 3.85,-11.72 6.48,-18.06 8.05,-19.47 18.97,-33.4 29.1,-46.32 2.28,-2.91 4.52,-5.77 7.01,-9.13 17.85,-24.11 43.96,-45.33 69.34,-65.97 13.7,-11.12 27.17,-22.07 38.17,-32.66l67.71 -57.62 2.55 -2c7.88,-5.29 16.6,-12.33 25.35,-19.39 6.25,-5.04 12.54,-10.12 18.06,-14.28 32.96,-24.84 68.65,-48.7 104.11,-72.4 12.32,-8.23 24.61,-16.45 41.02,-27.63l97.46 -66.5 9.03 -5.59c4.04,-2.49 8.01,-4.94 14.84,-9.47l270.02 -175.87 0.22 -0.22c38.79,-24.6 93.62,-53.18 148.99,-63.77 43.08,-8.25 86.54,-5.74 124.15,16.86 10.7,6.43 20.44,12.62 29.01,22.96 9.17,11.05 15.46,25.05 17.31,45.42 1.94,21.4 -2.52,73.45 -14.24,114.54 -9.51,33.35 -24.89,62.08 -48.02,71.77 -11.83,4.95 -22.86,5.77 -33,3.27 -12.02,-2.96 -21.3,-10.09 -28.1,-20.29l-0.11 -0.11c-19.94,-29.92 -8.93,-57.9 0.43,-81.65 1.4,-3.54 2.75,-6.97 3.35,-8.68 2.77,-7.91 5.12,-17.93 6.83,-28.4 -18.86,7.65 -38.74,20.37 -56.96,32.04l-0.11 0c-9.62,6.16 -18.87,12.08 -26.44,16.47 -21.63,12.54 -40.27,23.73 -57.94,34.88 -17.98,11.34 -35.33,22.83 -54.16,35.81l-330.75 226.94 -0.02 -0.03c-16.71,12.62 -32.39,23.3 -48.13,34.02 -20.16,13.73 -40.43,27.53 -58.58,42.14l-0.02 -0.04 -87.42 72.61 0.03 0.03c-6.65,5.69 -11.56,9.76 -17.01,14.27zm347.43 613.79c-11.52,5.88 -23.11,11.65 -34.75,17.34 -4.8,0.9 -9.91,1.35 -15.33,1.35l-52.91 0 0 -143.41 52.91 0c5.53,0 10.73,0.47 15.63,1.39l0.03 0.02c4.79,0.91 9.42,2.31 13.9,4.2 4.55,1.91 8.72,4.12 12.49,6.62 3.72,2.47 7.21,5.32 10.43,8.54 3.27,3.27 6.1,6.71 8.47,10.3 2.41,3.66 4.54,7.72 6.35,12.17 1.75,4.29 3.07,8.69 3.95,13.15l0.06 0.39c0.88,4.63 1.32,9.5 1.32,14.62 0,5.12 -0.44,10 -1.31,14.62l-0.01 0.04c-0.87,4.59 -2.21,9.09 -4.01,13.5 -1.81,4.43 -3.95,8.53 -6.39,12.29 -2.47,3.78 -5.31,7.33 -8.51,10.62 -0.75,0.77 -1.52,1.52 -2.31,2.26zm-209.14 95.09c-41.05,16.95 -82.58,33.4 -124.2,49.62 -68.56,26.72 -133.39,51.14 -199.91,70.75 -67.24,19.83 -136.23,34.78 -212.48,42.3 -63.46,6.26 -112.04,-0.48 -146.63,-15.54 -27.53,-11.98 -46.85,-29.34 -58.4,-50.03 -11.97,-21.43 -15.23,-45.58 -10.36,-70.44 5.09,-25.97 19.22,-52.65 41.62,-77.29 3.5,-3.85 6.21,-7.05 8.75,-10.05 7.5,-8.86 13.92,-16.44 26.34,-26.53 4.42,-3.59 8.51,-7.33 12.68,-11.14 7.56,-6.92 15.38,-14.07 23.86,-20.18l0.89 -0.67 78.34 -51.83c64.55,-38.92 138.99,-75.21 215.8,-107.06 83.12,-34.47 169.5,-63.87 249.36,-85.86 17.96,-4.94 34.88,-9.45 51.14,-13.68 29.94,-7.8 41.7,-10.82 51.01,-13.19 32.41,-8.25 55.09,-2.7 69.48,8.93 8.36,6.76 13.77,15.29 16.63,24.6 2.65,8.61 3.04,17.62 1.54,26.17 -0.67,3.83 -1.74,7.63 -3.19,11.34l-81.1 0c-6.17,0 -11.17,5 -11.17,11.18l0 39.87 -11.68 2.81c-11.76,2.82 -22.84,5.48 -32.5,8.15 -15.49,4.29 -31.79,9.16 -48.57,14.42 -16.24,5.09 -32.23,10.37 -47.89,15.72 -66.79,22.8 -160.8,61.79 -247.04,106.88 -66.25,34.63 -127.8,72.77 -168.34,109.63l-3.62 3.28c-4.57,4.12 -11.41,10.26 -18.47,16.87 56.69,-3.83 124.57,-20.3 191.95,-41.53 92.51,-29.16 183.25,-67.1 244.47,-94.42l42.9 -19.09c31.56,-13.96 64.96,-28.73 98.79,-44.24l0 190.29z" style="fill: #FEFEFE"></path>
   <path class="fil0" d="M679.49 951.97l938.42 0c56.81,0 103.29,46.48 103.29,103.29l0 438.13c0,56.81 -46.48,103.28 -103.29,103.28l-938.42 0c-56.81,0 -103.29,-46.47 -103.29,-103.28l0 -438.13c0,-56.81 46.48,-103.29 103.29,-103.29zm85.84 86.28l154.04 0c12.38,0 24.34,1.13 35.87,3.38 11.51,2.24 22.57,5.64 33.18,10.17 10.47,4.48 20.28,9.77 29.41,15.87 9.13,6.11 17.55,13.01 25.23,20.68l0.04 0.04c7.71,7.71 14.6,16.11 20.65,25.2 5.99,8.99 11.19,18.72 15.59,29.17 4.44,10.54 7.76,21.37 9.94,32.44 2.2,11.16 3.3,22.64 3.3,34.41 0,11.77 -1.1,23.27 -3.3,34.49 -2.19,11.19 -5.5,22.08 -9.9,32.64 -4.37,10.5 -9.59,20.32 -15.63,29.44 -6.04,9.13 -12.93,17.56 -20.65,25.27l-0.04 0.04c-7.72,7.71 -16.17,14.62 -25.35,20.73 -9.09,6.05 -18.98,11.32 -29.64,15.83 -10.73,4.54 -21.88,7.93 -33.42,10.17 -11.58,2.25 -23.56,3.37 -35.91,3.37l-58.45 0 0 117.61c0,6.17 -5,11.18 -11.17,11.18l-83.8 0c-6.17,0 -11.18,-5 -11.18,-11.18l0 -449.8c0,-6.17 5,-11.18 11.18,-11.18zm94.97 99.99l0 143.41 52.91 0c5.52,0 10.73,-0.47 15.61,-1.4 4.83,-0.93 9.49,-2.33 13.95,-4.2 4.48,-1.88 8.62,-4.1 12.41,-6.66 3.83,-2.58 7.31,-5.49 10.42,-8.69 3.21,-3.29 6.04,-6.84 8.51,-10.62 2.45,-3.76 4.58,-7.86 6.39,-12.3 1.8,-4.4 3.14,-8.91 4.01,-13.5l0.01 -0.04c0.87,-4.63 1.31,-9.5 1.31,-14.62 0,-5.11 -0.44,-9.99 -1.32,-14.61l-0.06 -0.39c-0.87,-4.47 -2.2,-8.86 -3.95,-13.15 -1.81,-4.45 -3.94,-8.52 -6.35,-12.17 -2.36,-3.6 -5.19,-7.04 -8.46,-10.31 -3.22,-3.22 -6.7,-6.07 -10.43,-8.54 -3.77,-2.5 -7.94,-4.72 -12.49,-6.62 -4.48,-1.88 -9.12,-3.28 -13.9,-4.19l-0.04 -0.01c-4.89,-0.92 -10.1,-1.39 -15.62,-1.39l-52.91 0zm487.93 378.33c-17.89,0 -35.11,-1.59 -51.62,-4.76 -16.52,-3.18 -32.31,-7.96 -47.33,-14.33 -14.97,-6.36 -28.82,-13.84 -41.54,-22.42 -12.76,-8.61 -24.46,-18.4 -35.1,-29.36 -10.55,-10.88 -19.96,-22.79 -28.2,-35.69 -8.23,-12.89 -15.25,-26.68 -21.03,-41.35 -5.78,-14.66 -10.13,-29.91 -13.04,-45.72 -2.92,-15.83 -4.38,-32.04 -4.38,-48.61 0,-17.48 1.56,-34.34 4.69,-50.54 3.11,-16.16 7.82,-31.67 14.1,-46.51 6.25,-14.75 13.65,-28.51 22.18,-41.24 8.58,-12.8 18.32,-24.59 29.2,-35.37 10.96,-10.84 22.85,-20.47 35.64,-28.86 12.7,-8.31 26.48,-15.52 41.35,-21.6 14.83,-6.07 30.15,-10.6 45.96,-13.6 15.91,-3.01 32.29,-4.53 49.12,-4.53 10.77,0 21.56,0.71 32.33,2.13 10.57,1.4 21.01,3.51 31.29,6.32 10.24,2.81 20.13,6.16 29.65,10.06 9.58,3.93 18.84,8.43 27.77,13.48 8.87,5.02 17.39,10.64 25.56,16.85 8.18,6.22 15.85,12.91 23.01,20.06l0.04 0c7.11,7.11 13.81,14.74 20.1,22.89 6.17,7.99 11.85,16.42 17.04,25.29 3.08,5.26 1.36,12.03 -3.86,15.16l-73.09 46.68c-5.18,3.3 -12.06,1.78 -15.36,-3.4l-0.32 -0.54 -0.03 0.02c-6.17,-10.99 -13.13,-20.8 -20.9,-29.42 -7.69,-8.55 -16.21,-15.97 -25.52,-22.24 -9.11,-6.13 -19.2,-10.73 -30.26,-13.78 -11.26,-3.09 -23.74,-4.64 -37.44,-4.64 -19.94,0 -38.22,3.5 -54.84,10.48 -8.34,3.51 -16.14,7.7 -23.38,12.55 -7.16,4.81 -13.78,10.29 -19.83,16.43 -6.01,6.1 -11.4,12.81 -16.16,20.1 -4.82,7.37 -8.92,15.18 -12.29,23.41 -3.38,8.27 -5.94,16.96 -7.66,26.05 -1.7,8.98 -2.55,18.42 -2.55,28.3 0,9.62 0.85,18.86 2.55,27.71 1.71,8.91 4.27,17.48 7.66,25.67 3.43,8.28 7.5,16.04 12.21,23.28 4.68,7.18 10,13.85 15.98,20.02 5.99,6.18 12.49,11.65 19.51,16.43 7.04,4.79 14.74,8.96 23.08,12.5 8.18,3.48 16.76,6.1 25.73,7.86 8.96,1.75 18.34,2.62 28.13,2.62 14.55,0 27.9,-1.82 40.02,-5.45 11.97,-3.58 22.83,-8.95 32.57,-16.08 10.01,-7.34 18.92,-15.73 26.71,-25.15 7.82,-9.45 14.51,-19.92 20.06,-31.4 2.68,-5.55 9.35,-7.87 14.89,-5.2l76.7 40.22c5.45,2.84 7.56,9.56 4.72,15.01l-0.05 0.1c-5.15,10.07 -10.84,19.63 -17.05,28.66 -6.33,9.2 -13.19,17.86 -20.56,25.98 -7.38,8.12 -15.22,15.73 -23.52,22.78l-0.65 0.51c-8.16,6.9 -16.65,13.2 -25.45,18.9 -9.23,5.98 -18.8,11.25 -28.66,15.8 -9.82,4.54 -20.12,8.44 -30.87,11.7 -10.8,3.28 -21.76,5.72 -32.85,7.33 -11.22,1.62 -22.61,2.44 -34.15,2.44z" style="fill: #FEFEFE"></path>
  </g>
 </g>
</svg>